<?xml version="1.0" encoding="utf-8"?>
<svg version="1.1" id="Layer_1" xmlns="http://www.w3.org/2000/svg" xmlns:xlink="http://www.w3.org/1999/xlink" x="0px" y="0px"
	 viewBox="0 0 500 100" style="enable-background:new 0 0 500 100;" xml:space="preserve">
<style type="text/css">
	.st0{fill:#FFFFFF;}
	.st1{fill:#F7DF1E;}
</style>
<rect y="-0.1" width="500" height="102.2"/>
<polygon class="st0" points="354,8 363.9,8 363.9,14 366.8,14 366.8,21 370.4,21 370.4,40.5 372.1,40.5 372.1,88.9 370.4,88.9 
	370.4,93 372.1,93 372.1,97.9 345.8,97.9 345.8,93 347.4,93 347.4,88.9 345.8,88.9 345.8,40.5 347.4,40.5 347.4,21 351,21 351,14 
	354,14 "/>
<path class="st1" d="M407.5,81.7c2.1,3.4,4.7,5.8,9.5,5.8c4,0,6.5-2,6.5-4.7c0-3.3-2.6-4.5-7-6.4l-2.4-1c-6.9-3-11.5-6.6-11.5-14.5
	c0-7.2,5.5-12.7,14.1-12.7c6.1,0,10.5,2.1,13.7,7.7l-7.5,4.8c-1.6-3-3.4-4.1-6.2-4.1c-2.8,0-4.6,1.8-4.6,4.1c0,2.9,1.8,4,5.9,5.8
	l2.4,1c8.2,3.5,12.8,7.1,12.8,15.1c0,8.6-6.8,13.4-15.9,13.4c-8.9,0-14.7-4.2-17.5-9.8L407.5,81.7z M373.6,82.5
	c1.5,2.7,2.9,4.9,6.2,4.9c3.2,0,5.1-1.2,5.1-6V48.8h9.6v32.8c0,9.9-5.8,14.5-14.3,14.5c-7.7,0-12.1-4-14.4-8.8L373.6,82.5z"/>
<g>
	<path class="st0" d="M98.5,65H94h-4.5H85h-4.5H76h-4.5v-4.5V56v-4.5V47v-4.5V38v-4.5V29v-4.5V20v-4.5H76h4.5H85h4.5H94h4.5h4.5V20
		h4.5v4.5V29v4.5V38H103v4.5h4.5V47v4.5V56v4.5H103V65H98.5z M94,33.5h4.5V29v-4.5H94h-4.5H85h-4.5V29v4.5H85h4.5H94z M94,56h4.5
		v-4.5V47v-4.5H94h-4.5H85h-4.5V47v4.5V56H85h4.5H94z"/>
	<path class="st0" d="M139,65h-4.5H130h-4.5H121v-4.5h-4.5V56v-4.5V47v-4.5V38v-4.5h4.5V29h4.5h4.5h4.5h4.5v4.5h4.5V38v4.5V47v4.5
		V56v4.5V65H139z M130,56h4.5v-4.5V47v-4.5V38H130h-4.5v4.5V47v4.5V56H130z"/>
	<path class="st0" d="M161.5,65H157v-4.5h-4.5V56v-4.5V47v-4.5V38H148v-4.5V29h4.5v-4.5V20v-4.5h4.5h4.5V20v4.5V29h4.5v4.5V38h-4.5
		v4.5V47v4.5V56h4.5v4.5V65H161.5z"/>
	<path class="st0" d="M184,65h-4.5v-4.5H175V56v-4.5V47v-4.5V38h-4.5v-4.5V29h4.5v-4.5V20v-4.5h4.5h4.5V20v4.5V29h4.5v4.5V38H184
		v4.5V47v4.5V56h4.5v4.5V65H184z"/>
	<path class="st0" d="M202,65h-4.5v-4.5V56v-4.5V47v-4.5V38v-4.5V29v-4.5V20v-4.5h4.5h4.5V20v4.5V29v4.5V38v4.5V47v4.5V56v4.5V65
		H202z"/>
	<path class="st0" d="M233.5,65H229h-4.5H220v-4.5h-4.5V56v-4.5V47v-4.5V38v-4.5h4.5V29h4.5h4.5h4.5h4.5v4.5h4.5V38v4.5V47H238h-4.5
		H229h-4.5v4.5V56h4.5h4.5v-4.5h4.5h4.5V56v4.5H238V65H233.5z M229,42.5h4.5V38H229h-4.5v4.5H229z"/>
	<path class="st0" d="M274,65h-4.5H265v-4.5h-4.5V65H256h-4.5v-4.5V56v-4.5V47v-4.5V38v-4.5V29v-4.5V20v-4.5h4.5h4.5V20v4.5V29v4.5
		h4.5V29h4.5h4.5h4.5v4.5h4.5V38v4.5V47v4.5V56v4.5h-4.5V65H274z M269.5,56h4.5v-4.5V47v-4.5V38h-4.5H265v4.5h-4.5V47v4.5h4.5V56
		H269.5z"/>
	<path class="st0" d="M296.5,24.5H292V20v-4.5h4.5h4.5V20v4.5H296.5z M296.5,65H292v-4.5V56v-4.5V47v-4.5V38v-4.5V29h4.5h4.5v4.5V38
		v4.5V47v4.5V56v4.5V65H296.5z"/>
	<path class="st0" d="M319,65h-4.5v-4.5H310V56v-4.5V47v-4.5V38h-4.5v-4.5V29h4.5v-4.5V20v-4.5h4.5h4.5V20v4.5V29h4.5v4.5V38H319
		v4.5V47v4.5V56h4.5v4.5V65H319z"/>
</g>
</svg>
